<svg xmlns="http://www.w3.org/2000/svg" viewBox="0 0 433.19 457.11"><defs><style>.cls-1{fill:#ca9e67;}.cls-1,.cls-10,.cls-11,.cls-14,.cls-2,.cls-3,.cls-4,.cls-5,.cls-8,.cls-9{stroke:#000;}.cls-1,.cls-11,.cls-12,.cls-13,.cls-14,.cls-2,.cls-3,.cls-4,.cls-5,.cls-7{stroke-miterlimit:10;}.cls-1,.cls-13,.cls-2{stroke-width:10px;}.cls-2,.cls-6,.cls-7{fill:#f6f6f6;}.cls-11,.cls-3{fill:#f39200;}.cls-3{stroke-width:5px;}.cls-4{fill:#432918;}.cls-4,.cls-5{stroke-width:6px;}.cls-5{fill:#95c11f;}.cls-7{stroke:#f6f6f6;}.cls-11,.cls-7{stroke-width:3px;}.cls-10,.cls-8,.cls-9{fill:#209538;}.cls-8{stroke-miterlimit:10;stroke-width:3px;}.cls-9{stroke-miterlimit:10;stroke-width:3px;}.cls-10{stroke-miterlimit:10;stroke-width:3px;}.cls-12,.cls-13{fill:none;}.cls-12{stroke:#00b253;stroke-width:11px;}.cls-13{stroke:#008053;}.cls-14{font-size:50.4px;fill:#1ca638;stroke-width:2px;font-family:Broadway;}</style></defs><g id="Capa_1" data-name="Capa 1"><g id="Capa_7" data-name="Capa 7"><path class="cls-1" d="M201.05,302.5c0-.06.16-.1,4.52-2.58l2.07-1.18L319.28,235a36.6,36.6,0,0,1,13.13-2.21c2.27,0,4.71.65,10.16,2.21,12.23,3.49,28.54,16.89,28.54,16.89l18.05,26.79L391.49,299v3.49C288.22,303.45,201.07,303.86,201.05,302.5Z" transform="translate(-85.24 -110.34)"/><path class="cls-2" d="M237.57,311.4" transform="translate(-85.24 -110.34)"/></g><g id="Capa_8" data-name="Capa 8"><polyline class="cls-1" points="115.81 193.03 115.81 281.55 119.31 293.2 134.45 293.2 153.08 293.2 299.26 293.2 306.25 287.96 306.25 267 306.25 193.03"/></g><g id="Capa_9" data-name="Capa 9"><rect class="cls-3" x="115.81" y="207.16" width="164.32" height="27.95"/><rect class="cls-3" x="115.81" y="249.23" width="164.32" height="27.95"/></g><g id="Capa_11" data-name="Capa 11"><path class="cls-4" d="M168.29,425.85" transform="translate(-85.24 -110.34)"/><path class="cls-5" d="M250.76,366.63c53.85,40.94,42.16,92.36,45.43,121.28C299,512.34,232.51,486.49,175,450c-54.47-34.53-55.14-102.71-47.45-123.18C132.85,312.63,210.81,336.27,250.76,366.63Z" transform="translate(-85.24 -110.34)"/><path class="cls-5" d="M409.87,458c48.08-35.53,39.58-80.07,43.34-105.13,3.18-21.17-55.35,1.3-106.5,33-48.42,30-51.18,89.05-45.16,106.78C305.73,504.9,374.2,484.34,409.87,458Z" transform="translate(-85.24 -110.34)"/><path class="cls-6" d="M218.94,419.2c-27.36-13.93-37.45-40.83-38.58-40.06s9.29,30.93,29.25,42.69a166.93,166.93,0,0,1,19.29,12.48c1.17.88,4.32,3.45,10.58,8.54,14.32,11.65,15.64,12.79,17.42,14.45,1.49,1.38,3.43,3.25,13.07,13.79,16.24,17.78,17,19.34,17.42,19,2.32-1.57-11.61-49-44.81-63C232.19,422.69,230.31,425,218.94,419.2Z" transform="translate(-85.24 -110.34)"/><path class="cls-6" d="M220.2,417c-12.84-6.58-23.25-16.89-31-28.71-2-3.08-3.76-6.33-5.74-9.45-.83-1.3-1.94-2.66-3.71-2.17-2.14.59-2.08,2.8-1.72,4.51.89,4.2,2.84,8.31,4.69,12.14a91.61,91.61,0,0,0,10.61,17,55.48,55.48,0,0,0,15.6,13.92,194.62,194.62,0,0,1,18.73,12.15c.16.12.55.44-.08-.07l.43.34,1.21,1,3.61,2.92q5.46,4.42,10.9,8.88c3.37,2.75,6.77,5.45,10,8.31,1.56,1.37,3,2.82,4.48,4.31,5.41,5.61,10.62,11.41,15.84,17.19,3.31,3.67,6.57,7.39,9.87,11.08,1.32,1.48,3.3,3.4,5.25,1.46,1.8-1.79.71-5.33.22-7.43a79.44,79.44,0,0,0-4-11.91,107.18,107.18,0,0,0-19.71-31.66,68.71,68.71,0,0,0-15.9-13,57.31,57.31,0,0,0-10.35-4.68c-2.91-1-5.91-1.53-8.89-2.24A45.27,45.27,0,0,1,220.2,417c-2.86-1.45-5.4,2.86-2.52,4.32a52.75,52.75,0,0,0,10.89,4.27c2.8.7,5.65,1.18,8.42,2a53.24,53.24,0,0,1,17.43,9.44c9.69,7.84,17,18,22.59,29.08q1.83,3.58,3.41,7.28c.19.46.06.15,0,.05l.18.43c.12.28.23.56.35.85.22.55.44,1.1.65,1.65q.6,1.55,1.14,3.12c.61,1.76,1.16,3.54,1.63,5.34.18.7.35,1.41.49,2.12.06.3.12.6.17.9,0,.12,0,.24.06.36.09.48-.06-.7,0-.14l.06,1.19c0,.59.14-.6,0-.22-.05.17-.14.14.08-.16s0-.23.42-.65a2.4,2.4,0,0,1,2.77-.37c-.18-.1.61.6.11.06-1.94-2.11-3.81-4.27-5.71-6.41q-8.12-9.13-16.43-18.1c-2.47-2.66-4.92-5.36-7.57-7.84-1.58-1.48-3.25-2.86-4.91-4.24-5.73-4.74-11.52-9.43-17.3-14.12a179,179,0,0,0-16.39-12.07c-4.85-3.09-10.19-5.58-14.63-9.28a65.92,65.92,0,0,1-13.13-15.32q-2.52-3.94-4.63-8.12c-.63-1.23-1.22-2.48-1.79-3.74-.25-.54-.48-1.09-.72-1.63s0,.09-.18-.44l-.36-.9a45.77,45.77,0,0,1-1.75-5.1c-.07-.27-.14-.54-.2-.81s0-.25-.07-.37c-.13-.51,0,.41,0,.24s.1-.52,0-.1a2.36,2.36,0,0,1-.44,1,2.53,2.53,0,0,1-3.05.63c-.26-.15-.59-.51-.27-.17-.62-.68-.23-.31,0,0,.28.44.56.89.82,1.35.86,1.45,1.69,2.92,2.56,4.36,6.6,10.92,14.91,20.76,25.26,28.3a75.8,75.8,0,0,0,10.1,6.21C220.54,422.83,223.07,418.51,220.2,417Z" transform="translate(-85.24 -110.34)"/><path class="cls-7" d="M275.82,504.28" transform="translate(-85.24 -110.34)"/><path class="cls-7" d="M207.49,483.93" transform="translate(-85.24 -110.34)"/><path class="cls-6" d="M337.12,460.77c-21.56,10-29.51,29.19-30.4,28.64s7.32-22.11,23-30.52A135.71,135.71,0,0,0,345,450c.92-.63,3.41-2.46,8.34-6.1,11.28-8.33,12.32-9.14,13.73-10.33,1.17-1,2.71-2.32,10.3-9.86,12.8-12.71,13.38-13.83,13.73-13.61,1.83,1.12-9.15,35-35.31,45.07C347.56,458.28,346.08,456.63,337.12,460.77Z" transform="translate(-85.24 -110.34)"/><path class="cls-6" d="M335.86,458.61a67.5,67.5,0,0,0-25,20.58c-1.8,2.36-3.42,4.84-5,7.34l-.67,1c-.33.52.4-.43.1-.13s-.4.23.29-.18a2.46,2.46,0,0,1,3.55,2c-.05-.6.13.3-.06.25a11.52,11.52,0,0,1,.3-1.19c.18-.58.38-1.14.6-1.71.11-.28.22-.56.34-.84.25-.61-.22.49.06-.13.11-.26.22-.51.34-.77q1.23-2.7,2.72-5.28a57.91,57.91,0,0,1,8.4-11.38,41.65,41.65,0,0,1,11.1-8.12,116.44,116.44,0,0,0,13.86-8.33c7-5,14-10.09,20.79-15.44,5.09-4,9.56-8.89,14.13-13.46q4.56-4.56,9-9.19c.49-.51,1-1,1.5-1.51s-.29.18-.18.12a2.44,2.44,0,0,1-2.3,0,2.13,2.13,0,0,1-1-1.3c.15.46,0-.49,0-.34s-.06,1.21,0,.61,0,.1-.05.24-.09.44-.13.66c-.11.52-.25,1-.4,1.55-.38,1.32-.83,2.61-1.32,3.89-.14.37-.29.74-.44,1.12l-.24.58c-.27.65.21-.47-.08.19-.36.83-.73,1.65-1.12,2.47a70.21,70.21,0,0,1-15.13,21.28,47.8,47.8,0,0,1-12.09,8.4,40.74,40.74,0,0,1-7.5,2.72c-2.07.53-4.2.83-6.27,1.34a47.84,47.84,0,0,0-8.1,3A2.52,2.52,0,0,0,335,462a2.57,2.57,0,0,0,3.42.9,39.05,39.05,0,0,1,8-2.73c2.26-.49,4.54-.86,6.76-1.52a48.13,48.13,0,0,0,15-7.59,70.09,70.09,0,0,0,19.15-22.73,75.78,75.78,0,0,0,4.78-10.55,22.8,22.8,0,0,0,1.68-6.83c.07-2.33-2-4.33-4.27-3-1.65,1-3,2.89-4.33,4.25q-6.4,6.57-13,13c-2.19,2.16-4.37,4.35-6.71,6.35-.46.39-.92.77-1.39,1.14l-.44.35c.43-.34.18-.14-.18.13l-1.58,1.19c-4.66,3.5-9.36,6.95-14.06,10.41a129.49,129.49,0,0,1-13.28,8.69c-4.21,2.37-8.47,4.37-12.25,7.44-7.53,6.12-13.29,14.78-16.92,23.73-.84,2.08-2.71,6.72,1,7.22,2.46.33,3.8-2.89,4.9-4.58A67.15,67.15,0,0,1,330,467.64a61.77,61.77,0,0,1,8.32-4.68,2.51,2.51,0,0,0-2.5-4.35Z" transform="translate(-85.24 -110.34)"/></g><g id="Capa_3" data-name="Capa 3"><ellipse class="cls-8" cx="333.41" cy="254.81" rx="14.37" ry="4.8" transform="translate(-109.25 364.32) rotate(-68.99)"/></g><g id="Capa_5" data-name="Capa 5"><ellipse class="cls-9" cx="344.91" cy="273.18" rx="6.26" ry="13.37" transform="translate(-100.56 415.48) rotate(-73.42)"/></g><g id="Capa_4" data-name="Capa 4"><ellipse class="cls-10" cx="344.9" cy="260.3" rx="13.56" ry="6.3" transform="translate(-155.38 29.75) rotate(-20.89)"/></g><g id="Capa_2" data-name="Capa 2"><path class="cls-11" d="M333.48,265.59c6.84,17.36-7.37,18-7.37,18s-39.46,6.07-48.17.27" transform="translate(-85.24 -110.34)"/><path class="cls-11" d="M333.43,265.62c-5.59-17.81-17.06-9.39-17.06-9.39S281,274,277.9,284" transform="translate(-85.24 -110.34)"/></g></g><g id="Capa_2-2" data-name="Capa 2"><path class="cls-12" d="M485.82,260.3a207.53,207.53,0,0,1,21.92,93.15c0,115.16-93.35,208.5-208.5,208.5s-208.5-93.34-208.5-208.5a207.66,207.66,0,0,1,47-131.93" transform="translate(-85.24 -110.34)"/><path class="cls-13" d="M485.82,260.3" transform="translate(-85.24 -110.34)"/><path class="cls-13" d="M137.78,221.52q1.69-2.07,3.44-4.09" transform="translate(-85.24 -110.34)"/></g><g id="Capa_3-2" data-name="Capa 3"><text class="cls-14" transform="matrix(0.69, -0.72, 0.72, 0.7, 56.09, 122.31)">P</text><text class="cls-14" transform="matrix(0.8, -0.59, 0.59, 0.81, 80.86, 96.56)">a</text><text class="cls-14" transform="matrix(0.88, -0.47, 0.47, 0.88, 108.55, 76.51)">r</text><text class="cls-14" transform="matrix(0.94, -0.34, 0.34, 0.94, 129.74, 64.77)">a</text><text class="cls-14" transform="matrix(0.97, -0.21, 0.21, 0.98, 162.18, 53.68)">í</text><text class="cls-14" transform="matrix(0.99, -0.11, 0.11, 0.99, 179.35, 49.75)">s</text><text class="cls-14" transform="matrix(1, 0, 0, 1, 202.28, 47.11)">o</text><text class="cls-14" transform="matrix(0.99, 0.12, -0.12, 0.99, 231.57, 47.81)"> </text><text class="cls-14" transform="matrix(0.97, 0.24, -0.24, 0.97, 243.19, 48.28)">V</text><text class="cls-14" transform="matrix(0.92, 0.38, -0.38, 0.92, 276.89, 56.58)">e</text><text class="cls-14" transform="matrix(0.86, 0.51, -0.51, 0.86, 303.64, 67.64)">g</text><text class="cls-14" transform="matrix(0.77, 0.63, -0.63, 0.78, 326.62, 80.7)">a</text><text class="cls-14" transform="matrix(0.66, 0.75, -0.75, 0.66, 353.21, 101.92)">n</text><text class="cls-14" transform="matrix(0.53, 0.85, -0.85, 0.53, 377.1, 129.64)">o</text></g></svg>