<?xml version="1.0" encoding="utf-8"?>
<!-- Generator: Adobe Illustrator 25.2.1, SVG Export Plug-In . SVG Version: 6.00 Build 0)  -->
<svg version="1.1" id="Capa_1" xmlns="http://www.w3.org/2000/svg" xmlns:xlink="http://www.w3.org/1999/xlink" x="0px" y="0px"
	 viewBox="0 0 595.28 841.89" style="enable-background:new 0 0 595.28 841.89;" xml:space="preserve">
<style type="text/css">
	.st0{fill:#643E00;stroke:#000000;stroke-width:6;stroke-miterlimit:10;}
	.st1{fill:#FFFFFF;stroke:#000000;stroke-miterlimit:10;}
	.st2{fill:#FFFFFF;stroke:#000000;stroke-width:8;stroke-miterlimit:10;}
	.st3{fill:none;stroke:#00913D;stroke-width:29;stroke-miterlimit:10;}
	.st4{fill:#98BF13;stroke:#00913D;stroke-width:18;stroke-miterlimit:10;}
	.st5{fill:#4DA92C;stroke:#4DA92C;stroke-width:4;stroke-miterlimit:10;}
	.st6{font-family:'SegoePrint';}
	.st7{font-size:41.6038px;}
	.st8{fill:#E0040B;}
</style>
<path class="st0" d="M360.61,475.04h-127c-25.96,0-47-21.04-47-47l1.17-66.41l-1.28-22.45c0-25.96,19.79-47.06,45.74-47.06h127
	c25.96,0,49.53,15.55,49.53,41.51l-1.17,94.41C407.61,454,386.57,475.04,360.61,475.04z"/>
<g>
	<g>
		<path d="M-332,207.5c3.22,0,3.22-5,0-5C-335.22,202.5-335.22,207.5-332,207.5L-332,207.5z"/>
	</g>
</g>
<path class="st1" d="M189.91,186.53"/>
<path class="st2" d="M188.9,341.41L188.9,341.41c-0.25,8.67,1.4,14.8,2.55,18.13c0.32,0.92,1.05,2.92,2.3,5.36
	c2.79,5.45,7.18,4.69,9.58,5.11c4.93,0.85,10.01-6.6,12.89-16.09c0.18-0.58,1.37-4.57,3.83-9.45c3.35-6.64,5.08-6.99,5.62-7.15
	c6-1.79,7.86,2.03,9.58,5.62c2.17,4.55,1.26,6.28,3.7,13.02c2.54,7.02,5.17,10.38,9.7,11.55c3.67,0.95,6.27,0.21,8.94-1.85
	c1.6-1.24,2.35-2.53,3.64-4.82c2.68-4.76,2.47-7.13,5.55-14.58c1.28-3.08,1.96-4.25,3.06-5.36c2.02-2.04,4.48-2.96,6.13-3.57
	c2.4-0.9,3.61-1.35,5.11-1.28c5.08,0.23,8.72,6.08,10.98,9.7c1.48,2.38,1.93,3.66,3.32,6.64c2,4.28,3.97,7.62,7.91,14.3
	c8.46,14.33,13.96,15.94,17.11,16.66c6.79,1.56,14.92-4.88,18.64-10.72c2.01-3.15-0.04,1.77,5.11-14.11
	c1.98-6.12,2.86-8.37,4.85-10.98c2.79-3.65,8.39-8.8,12.77-7.4c1.95,0.62,7.6,4.86,9.45,7.98c3.16,5.32,3.62,6.85,5.62,12.7
	c3.32,9.72,1.95,7.86,8.94,14.87c7.7,7.72,16.34-1.53,17.62-8.94c0.54-3.15,1.19-10.97,1.3-12.51c0.7-9.3,3-25.45-7.68-40.6
	c-1.99-2.83-12.15-12.57-26.3-15.64c-2.4-0.52-6.79-0.69-15.57-1.02c-7.6-0.29-10.8-0.15-21.17-0.32
	c-11.16-0.18-11.38-0.45-19.15-0.51c-8.81-0.07-10.39,0.26-21.7,0.51c-11.81,0.26-21.46,0.15-31.4,0
	c-10.61-0.16-14.73-0.39-24.26-0.26c-14.79,0.21-16.86,1-19.94,2.11c-9.5,3.4-15.22,9.78-17.62,12.51
	c-9.3,10.62-11.23,22.55-11.74,27.57"/>
<ellipse class="st3" cx="293.15" cy="356.98" rx="272.17" ry="283.4"/>
<path class="st4" d="M311.36,215.52c1.21-2.21,2.42-4.41,4.42-7.33c14.47-21.09,36.63-30.65,56.7-39.02
	c15.91-6.64,23.97-9.91,29.26-7.7c14.85,6.2,9.99,38.94,7.93,48.37c-1.48,6.76-3.96,12.66-4.27,13.39
	c-3.43,8.08-7.53,13.86-10.36,17.81c-2.64,3.68-4.38,6.11-7.32,9.09c-4.38,4.45-9.2,7.9-15.24,11.37
	c-7.36,4.23-15.07,7.65-47.55,17.93c-16.11,5.1-17.41,5.27-19.2,4.55C292.62,278.69,296.12,243.37,311.36,215.52z"/>
<path class="st4" d="M279.43,215.52c-1.21-2.21-2.42-4.41-4.42-7.33c-14.47-21.09-36.63-30.65-56.7-39.02
	c-15.91-6.64-23.97-9.91-29.26-7.7c-14.85,6.2-9.99,38.94-7.93,48.37c1.48,6.76,3.96,12.66,4.27,13.39
	c3.43,8.08,7.53,13.86,10.36,17.81c2.64,3.68,4.38,6.11,7.32,9.09c4.38,4.45,9.2,7.9,15.24,11.37c7.36,4.23,15.07,7.65,47.55,17.93
	c16.11,5.1,17.41,5.27,19.2,4.55C298.17,278.69,294.66,243.37,279.43,215.52z"/>
<g>
	<g>
		<path d="M188.44,174.39c7.54,15.84,16.86,30.78,27.78,44.51c10.99,13.82,23.67,26.18,37.17,37.53c7.6,6.39,15.46,12.48,23.43,18.4
			c1.08,0.81,2.79,0.18,3.42-0.9c0.74-1.27,0.19-2.61-0.9-3.42c-13.9-10.32-27.41-21.2-39.79-33.32
			c-12.29-12.02-23.27-25.25-32.56-39.72c-5.28-8.22-10.02-16.79-14.22-25.61c-0.58-1.22-2.33-1.54-3.42-0.9
			C188.09,171.7,187.86,173.16,188.44,174.39L188.44,174.39z"/>
	</g>
</g>
<g>
	<g>
		<path d="M396.45,171.13c-7.37,15.6-16.42,30.46-27.13,44c-10.84,13.71-23.34,26.01-36.65,37.31c-7.39,6.28-15.03,12.26-22.8,18.07
			c-1.08,0.81-1.63,2.16-0.9,3.42c0.62,1.06,2.33,1.71,3.42,0.9c14.16-10.59,27.96-21.72,40.58-34.12
			c12.57-12.36,23.82-26.02,33.33-40.87c5.38-8.4,10.2-17.16,14.46-26.18c0.58-1.22,0.34-2.7-0.9-3.42
			C398.78,169.6,397.03,169.91,396.45,171.13L396.45,171.13z"/>
	</g>
</g>
<text transform="matrix(1.0095 0 0 1 127.3375 530.3245)" class="st5 st6 st7">Paraiso Vegano</text>
<g>
	<g>
		<path d="M189.3,341.61c3.22,0,3.22-5,0-5C186.08,336.61,186.08,341.61,189.3,341.61L189.3,341.61z"/>
	</g>
</g>
<g>
	<g>
		<path d="M189.3,343.14c3.22,0,3.22-5,0-5C186.08,338.14,186.08,343.14,189.3,343.14L189.3,343.14z"/>
	</g>
</g>
<g>
	<g>
		<path d="M189.55,342.12c3.22,0,3.22-5,0-5C186.34,337.12,186.33,342.12,189.55,342.12L189.55,342.12z"/>
	</g>
</g>
<g>
	<g>
		<path d="M190.32,342.37c3.22,0,3.22-5,0-5C187.1,337.37,187.1,342.37,190.32,342.37L190.32,342.37z"/>
	</g>
</g>
<g>
	<g>
		<path class="st8" d="M204.36,344.93c3.22,0,3.22-5,0-5C201.14,339.93,201.14,344.93,204.36,344.93L204.36,344.93z"/>
	</g>
</g>
<g>
	<g>
		<path class="st8" d="M253.13,346.46c3.22,0,3.22-5,0-5C249.91,341.46,249.91,346.46,253.13,346.46L253.13,346.46z"/>
	</g>
</g>
<g>
	<g>
		<path class="st8" d="M321.3,362.54c3.22,0,3.22-5,0-5C318.08,357.54,318.08,362.54,321.3,362.54L321.3,362.54z"/>
	</g>
</g>
<g>
	<g>
		<path class="st8" d="M392.02,354.88c3.22,0,3.22-5,0-5C388.8,349.88,388.8,354.88,392.02,354.88L392.02,354.88z"/>
	</g>
</g>
<g>
	<g>
		<path class="st8" d="M379.26,326.03c3.22,0,3.22-5,0-5C376.04,321.03,376.03,326.03,379.26,326.03L379.26,326.03z"/>
	</g>
</g>
<g>
	<g>
		<path class="st8" d="M322.57,323.99c3.22,0,3.22-5,0-5C319.36,318.99,319.35,323.99,322.57,323.99L322.57,323.99z"/>
	</g>
</g>
<g>
	<g>
		<path class="st8" d="M262.83,315.05c3.22,0,3.22-5,0-5C259.61,310.05,259.61,315.05,262.83,315.05L262.83,315.05z"/>
	</g>
</g>
<g>
	<g>
		<path class="st8" d="M219.17,316.84c3.22,0,3.22-5,0-5C215.95,311.84,215.95,316.84,219.17,316.84L219.17,316.84z"/>
	</g>
</g>
<g>
	<g>
		<path class="st8" d="M239.6,321.69c0.09,0,0.17,0,0.26,0c0.34,0.01,0.67-0.06,0.96-0.22c0.31-0.1,0.58-0.27,0.8-0.52
			c0.24-0.23,0.42-0.49,0.52-0.8c0.16-0.3,0.23-0.62,0.22-0.96c-0.03-0.22-0.06-0.44-0.09-0.66c-0.12-0.42-0.33-0.79-0.64-1.1
			c-0.17-0.13-0.34-0.26-0.51-0.39c-0.39-0.23-0.81-0.34-1.26-0.34c-0.09,0-0.17,0-0.26,0c-0.34-0.01-0.67,0.06-0.96,0.22
			c-0.31,0.1-0.58,0.27-0.8,0.52c-0.24,0.23-0.42,0.49-0.52,0.8c-0.16,0.3-0.23,0.62-0.22,0.96c0.03,0.22,0.06,0.44,0.09,0.66
			c0.12,0.42,0.33,0.79,0.64,1.1c0.17,0.13,0.34,0.26,0.51,0.39C238.72,321.58,239.14,321.69,239.6,321.69L239.6,321.69z"/>
	</g>
</g>
<g>
	<g>
		<path class="st8" d="M292.7,325.27c3.22,0,3.22-5,0-5C289.48,320.27,289.48,325.27,292.7,325.27L292.7,325.27z"/>
	</g>
</g>
<g>
	<g>
		<path class="st8" d="M355.26,325.52c3.22,0,3.22-5,0-5C352.04,320.52,352.03,325.52,355.26,325.52L355.26,325.52z"/>
	</g>
</g>
<g>
	<g>
		<path class="st8" d="M336.67,306.94c0,0.17,0,0.34,0,0.51c-0.01,0.34,0.06,0.67,0.22,0.96c0.1,0.31,0.27,0.58,0.52,0.8
			c0.23,0.24,0.49,0.42,0.8,0.52c0.3,0.16,0.62,0.23,0.96,0.22c0.22-0.03,0.44-0.06,0.66-0.09c0.42-0.12,0.79-0.33,1.1-0.64
			c0.13-0.17,0.26-0.34,0.39-0.51c0.23-0.39,0.34-0.81,0.34-1.26c0-0.17,0-0.34,0-0.51c0.01-0.34-0.06-0.67-0.22-0.96
			c-0.1-0.31-0.27-0.58-0.52-0.8c-0.23-0.24-0.49-0.42-0.8-0.52c-0.3-0.16-0.62-0.23-0.96-0.22c-0.22,0.03-0.44,0.06-0.66,0.09
			c-0.42,0.12-0.79,0.33-1.1,0.64c-0.13,0.17-0.26,0.34-0.39,0.51C336.79,306.06,336.67,306.48,336.67,306.94L336.67,306.94z"/>
	</g>
</g>
</svg>
